<?xml version="1.0" encoding="UTF-8" standalone="no"?>
<!-- Created with Inkscape (http://www.inkscape.org/) -->

<svg
   xmlns:dc="http://purl.org/dc/elements/1.1/"
   xmlns:cc="http://creativecommons.org/ns#"
   xmlns:rdf="http://www.w3.org/1999/02/22-rdf-syntax-ns#"
   xmlns:svg="http://www.w3.org/2000/svg"
   xmlns="http://www.w3.org/2000/svg"
   xmlns:sodipodi="http://sodipodi.sourceforge.net/DTD/sodipodi-0.dtd"
   xmlns:inkscape="http://www.inkscape.org/namespaces/inkscape"
   width="744.09448819"
   height="1052.3622047"
   id="svg2"
   version="1.1"
   inkscape:version="0.48.5 r10040"
   sodipodi:docname="logo.svg">
  <sodipodi:namedview
     id="base"
     pagecolor="#ffffff"
     bordercolor="#666666"
     borderopacity="1.0"
     inkscape:pageopacity="0.0"
     inkscape:pageshadow="2"
     inkscape:zoom="0.98994949"
     inkscape:cx="235.48492"
     inkscape:cy="589.34034"
     inkscape:document-units="px"
     inkscape:current-layer="layer1"
     showgrid="false"
     inkscape:window-width="1375"
     inkscape:window-height="1127"
     inkscape:window-x="159"
     inkscape:window-y="132"
     inkscape:window-maximized="0" />
  <defs
     id="defs4" />
  <metadata
     id="metadata7">
    <rdf:RDF>
      <cc:Work
         rdf:about="">
        <dc:format>image/svg+xml</dc:format>
        <dc:type
           rdf:resource="http://purl.org/dc/dcmitype/StillImage" />
        <dc:title></dc:title>
      </cc:Work>
    </rdf:RDF>
  </metadata>
  <g
     inkscape:label="Layer 1"
     inkscape:groupmode="layer"
     id="layer1">
    <g
       id="g3796"
       transform="translate(-118.18785,-112.12693)">
      <path
         transform="matrix(0.77043053,0,0,0.77043053,42.217487,40.921122)"
         d="m 288.90363,224.54218 c 0,27.61564 -22.38691,50.00255 -50.00255,50.00255 -27.61565,0 -50.00255,-22.38691 -50.00255,-50.00255 0,-27.61565 22.3869,-50.00256 50.00255,-50.00256 27.61564,0 50.00255,22.38691 50.00255,50.00256 z"
         sodipodi:ry="50.002552"
         sodipodi:rx="50.002552"
         sodipodi:cy="224.54218"
         sodipodi:cx="238.90108"
         id="path2991"
         style="fill:none;stroke:#000000;stroke-width:31.15141296;stroke-linecap:butt;stroke-linejoin:miter;stroke-miterlimit:4;stroke-opacity:1;stroke-dasharray:none"
         sodipodi:type="arc" />
      <path
         sodipodi:type="arc"
         style="fill:none;stroke:#000000;stroke-width:31.15141296;stroke-linecap:butt;stroke-linejoin:miter;stroke-miterlimit:4;stroke-opacity:1;stroke-dasharray:none"
         id="path3780"
         sodipodi:cx="238.90108"
         sodipodi:cy="224.54218"
         sodipodi:rx="50.002552"
         sodipodi:ry="50.002552"
         d="m 288.90363,224.54218 c 0,27.61564 -22.38691,50.00255 -50.00255,50.00255 -27.61565,0 -50.00255,-22.38691 -50.00255,-50.00255 0,-27.61565 22.3869,-50.00256 50.00255,-50.00256 27.61564,0 50.00255,22.38691 50.00255,50.00256 z"
         transform="matrix(0.77043053,0,0,0.77043053,41.207334,158.13943)" />
      <path
         inkscape:connector-curvature="0"
         id="path3794"
         d="m 185.89944,300.04302 c 0,-0.27548 0.96307,-4.09649 2.14015,-8.49114 2.76843,-10.33598 3.03438,-29.01057 0.55706,-39.11514 -0.92788,-3.78467 -1.68705,-7.07264 -1.68705,-7.30661 0,-0.23397 2.1592,1.67118 4.79822,4.23367 6.05186,5.87636 16.79619,11.05533 26.26416,12.65984 15.12528,2.56323 32.35289,-2.58395 43.0919,-12.8748 2.72735,-2.61353 4.66793,-3.99381 4.31238,-3.06728 -0.35554,0.92653 -1.44083,4.51103 -2.41174,7.96557 -2.45231,8.72534 -2.45283,32.26535 -8.9e-4,40.05189 0.95024,3.01765 1.72771,5.70718 1.72771,5.97673 0,0.26955 -1.67018,-1.18009 -3.71151,-3.22142 -9.58841,-9.5884 -20.57574,-14.00315 -35.17936,-14.13518 -14.7239,-0.13313 -26.22083,4.24621 -35.60788,13.5635 -2.36123,2.34368 -4.29315,4.03585 -4.29315,3.76037 z"
         style="fill:#000000;fill-opacity:1;stroke:#000000;stroke-width:1.01015258;stroke-miterlimit:4;stroke-opacity:1;stroke-dasharray:none" />
    </g>
    <g
       transform="matrix(-0.36807122,0.3742243,-0.3742243,-0.36807122,601.77229,430.318)"
       id="g3801"
       inkscape:export-filename="/Users/levi/data/project/velocorner/doc/logo.png"
       inkscape:export-xdpi="90"
       inkscape:export-ydpi="90">
      <path
         sodipodi:type="arc"
         style="fill:none;stroke:#000000;stroke-width:31.15141296;stroke-linecap:butt;stroke-linejoin:miter;stroke-miterlimit:4;stroke-opacity:1;stroke-dasharray:none"
         id="path3803"
         sodipodi:cx="238.90108"
         sodipodi:cy="224.54218"
         sodipodi:rx="50.002552"
         sodipodi:ry="50.002552"
         d="m 288.90363,224.54218 c 0,27.61564 -22.38691,50.00255 -50.00255,50.00255 -27.61565,0 -50.00255,-22.38691 -50.00255,-50.00255 0,-27.61565 22.3869,-50.00256 50.00255,-50.00256 27.61564,0 50.00255,22.38691 50.00255,50.00256 z"
         transform="matrix(0.77043053,0,0,0.77043053,42.217487,40.921122)" />
      <path
         transform="matrix(0.77043053,0,0,0.77043053,41.207334,158.13943)"
         d="m 288.90363,224.54218 c 0,27.61564 -22.38691,50.00255 -50.00255,50.00255 -27.61565,0 -50.00255,-22.38691 -50.00255,-50.00255 0,-27.61565 22.3869,-50.00256 50.00255,-50.00256 27.61564,0 50.00255,22.38691 50.00255,50.00256 z"
         sodipodi:ry="50.002552"
         sodipodi:rx="50.002552"
         sodipodi:cy="224.54218"
         sodipodi:cx="238.90108"
         id="path3805"
         style="fill:none;stroke:#000000;stroke-width:31.15141296;stroke-linecap:butt;stroke-linejoin:miter;stroke-miterlimit:4;stroke-opacity:1;stroke-dasharray:none"
         sodipodi:type="arc" />
      <path
         style="fill:#000000;fill-opacity:1;stroke:#000000;stroke-width:1.01015258;stroke-miterlimit:4;stroke-opacity:1;stroke-dasharray:none"
         d="m 185.89944,300.04302 c 0,-0.27548 0.96307,-4.09649 2.14015,-8.49114 2.76843,-10.33598 3.03438,-29.01057 0.55706,-39.11514 -0.92788,-3.78467 -1.68705,-7.07264 -1.68705,-7.30661 0,-0.23397 2.1592,1.67118 4.79822,4.23367 6.05186,5.87636 16.79619,11.05533 26.26416,12.65984 15.12528,2.56323 32.35289,-2.58395 43.0919,-12.8748 2.72735,-2.61353 4.66793,-3.99381 4.31238,-3.06728 -0.35554,0.92653 -1.44083,4.51103 -2.41174,7.96557 -2.45231,8.72534 -2.45283,32.26535 -8.9e-4,40.05189 0.95024,3.01765 1.72771,5.70718 1.72771,5.97673 0,0.26955 -1.67018,-1.18009 -3.71151,-3.22142 -9.58841,-9.5884 -20.57574,-14.00315 -35.17936,-14.13518 -14.7239,-0.13313 -26.22083,4.24621 -35.60788,13.5635 -2.36123,2.34368 -4.29315,4.03585 -4.29315,3.76037 z"
         id="path3807"
         inkscape:connector-curvature="0" />
    </g>
    <g
       id="g3830"
       transform="translate(-13.131983,-12.269068)"
       inkscape:export-filename="/Users/levi/data/project/velocorner/doc/logo.png"
       inkscape:export-xdpi="90"
       inkscape:export-ydpi="90">
      <path
         transform="matrix(0.40439916,0,0,0.40439916,374.82896,413.26434)"
         d="m 288.90363,224.54218 c 0,27.61564 -22.38691,50.00255 -50.00255,50.00255 -27.61565,0 -50.00255,-22.38691 -50.00255,-50.00255 0,-27.61565 22.3869,-50.00256 50.00255,-50.00256 27.61564,0 50.00255,22.38691 50.00255,50.00256 z"
         sodipodi:ry="50.002552"
         sodipodi:rx="50.002552"
         sodipodi:cy="224.54218"
         sodipodi:cx="238.90108"
         id="path3813"
         style="fill:none;stroke:#ff0000;stroke-width:31.15141296;stroke-linecap:butt;stroke-linejoin:miter;stroke-miterlimit:4;stroke-opacity:1;stroke-dasharray:none"
         sodipodi:type="arc" />
      <path
         sodipodi:type="arc"
         style="fill:none;stroke:#ff0000;stroke-width:31.15141296;stroke-linecap:butt;stroke-linejoin:miter;stroke-miterlimit:4;stroke-opacity:1;stroke-dasharray:none"
         id="path3815"
         sodipodi:cx="238.90108"
         sodipodi:cy="224.54218"
         sodipodi:rx="50.002552"
         sodipodi:ry="50.002552"
         d="m 288.90363,224.54218 c 0,27.61564 -22.38691,50.00255 -50.00255,50.00255 -27.61565,0 -50.00255,-22.38691 -50.00255,-50.00255 0,-27.61565 22.3869,-50.00256 50.00255,-50.00256 27.61564,0 50.00255,22.38691 50.00255,50.00256 z"
         transform="matrix(0.40439916,0,0,0.40439916,374.29873,474.79225)" />
      <path
         inkscape:connector-curvature="0"
         id="path3817"
         d="m 450.24765,549.27748 c 0,-0.1446 0.50551,-2.15025 1.12336,-4.457 1.45315,-5.42536 1.59275,-15.22766 0.2924,-20.53155 -0.48704,-1.98657 -0.88553,-3.71243 -0.88553,-3.83524 0,-0.12281 1.13337,0.8772 2.51859,2.22226 3.17662,3.0845 8.81632,5.80294 13.78606,6.64515 7.93927,1.34544 16.98204,-1.35632 22.61895,-6.75799 1.43159,-1.37184 2.4502,-2.09635 2.26357,-1.61001 -0.18662,0.48633 -0.75629,2.36784 -1.26592,4.18113 -1.28722,4.57993 -1.28749,16.93609 -4.7e-4,21.02324 0.49878,1.58397 0.90688,2.9957 0.90688,3.13719 0,0.14149 -0.87668,-0.61943 -1.94818,-1.69092 -5.03296,-5.03296 -10.80021,-7.35026 -18.46565,-7.41956 -7.72858,-0.0699 -13.76332,2.22883 -18.69059,7.11948 -1.23941,1.2302 -2.25347,2.11842 -2.25347,1.97382 z"
         style="fill:#ff0000;fill-opacity:1;stroke:#000000;stroke-width:0;stroke-miterlimit:4;stroke-opacity:1;stroke-dasharray:none" />
    </g>
    <g
       id="g3843"
       transform="matrix(0.0029941,0.99999552,-0.99999552,0.0029941,843.03157,-102.90606)"
       inkscape:export-filename="/Users/levi/data/project/velocorner/doc/logo.png"
       inkscape:export-xdpi="90"
       inkscape:export-ydpi="90">
      <path
         sodipodi:type="arc"
         style="fill:none;stroke:#ff0000;stroke-width:31.15141296;stroke-linecap:butt;stroke-linejoin:miter;stroke-miterlimit:4;stroke-opacity:1;stroke-dasharray:none"
         id="path3845"
         sodipodi:cx="238.90108"
         sodipodi:cy="224.54218"
         sodipodi:rx="50.002552"
         sodipodi:ry="50.002552"
         d="m 288.90363,224.54218 c 0,27.61564 -22.38691,50.00255 -50.00255,50.00255 -27.61565,0 -50.00255,-22.38691 -50.00255,-50.00255 0,-27.61565 22.3869,-50.00256 50.00255,-50.00256 27.61564,0 50.00255,22.38691 50.00255,50.00256 z"
         transform="matrix(0.40439916,0,0,0.40439916,374.82896,413.26434)" />
      <path
         transform="matrix(0.40439916,0,0,0.40439916,374.29873,474.79225)"
         d="m 288.90363,224.54218 c 0,27.61564 -22.38691,50.00255 -50.00255,50.00255 -27.61565,0 -50.00255,-22.38691 -50.00255,-50.00255 0,-27.61565 22.3869,-50.00256 50.00255,-50.00256 27.61564,0 50.00255,22.38691 50.00255,50.00256 z"
         sodipodi:ry="50.002552"
         sodipodi:rx="50.002552"
         sodipodi:cy="224.54218"
         sodipodi:cx="238.90108"
         id="path3847"
         style="fill:none;stroke:#ff0000;stroke-width:31.15141296;stroke-linecap:butt;stroke-linejoin:miter;stroke-miterlimit:4;stroke-opacity:1;stroke-dasharray:none"
         sodipodi:type="arc" />
      <path
         style="fill:#ff0000;fill-opacity:1;stroke:#000000;stroke-width:0;stroke-miterlimit:4;stroke-opacity:1;stroke-dasharray:none"
         d="m 450.24765,549.27748 c 0,-0.1446 0.50551,-2.15025 1.12336,-4.457 1.45315,-5.42536 1.59275,-15.22766 0.2924,-20.53155 -0.48704,-1.98657 -0.88553,-3.71243 -0.88553,-3.83524 0,-0.12281 1.13337,0.8772 2.51859,2.22226 3.17662,3.0845 8.81632,5.80294 13.78606,6.64515 7.93927,1.34544 16.98204,-1.35632 22.61895,-6.75799 1.43159,-1.37184 2.4502,-2.09635 2.26357,-1.61001 -0.18662,0.48633 -0.75629,2.36784 -1.26592,4.18113 -1.28722,4.57993 -1.28749,16.93609 -4.7e-4,21.02324 0.49878,1.58397 0.90688,2.9957 0.90688,3.13719 0,0.14149 -0.87668,-0.61943 -1.94818,-1.69092 -5.03296,-5.03296 -10.80021,-7.35026 -18.46565,-7.41956 -7.72858,-0.0699 -13.76332,2.22883 -18.69059,7.11948 -1.23941,1.2302 -2.25347,2.11842 -2.25347,1.97382 z"
         id="path3849"
         inkscape:connector-curvature="0" />
    </g>
    <g
       id="g3851"
       transform="translate(-315.08637,-14.289376)"
       inkscape:export-filename="/Users/levi/data/project/velocorner/doc/logo.png"
       inkscape:export-xdpi="90"
       inkscape:export-ydpi="90">
      <path
         sodipodi:type="arc"
         style="fill:none;stroke:#ff0000;stroke-width:31.15141296;stroke-linecap:butt;stroke-linejoin:miter;stroke-miterlimit:4;stroke-opacity:1;stroke-dasharray:none"
         id="path3853"
         sodipodi:cx="238.90108"
         sodipodi:cy="224.54218"
         sodipodi:rx="50.002552"
         sodipodi:ry="50.002552"
         d="m 288.90363,224.54218 c 0,27.61564 -22.38691,50.00255 -50.00255,50.00255 -27.61565,0 -50.00255,-22.38691 -50.00255,-50.00255 0,-27.61565 22.3869,-50.00256 50.00255,-50.00256 27.61564,0 50.00255,22.38691 50.00255,50.00256 z"
         transform="matrix(0.40439916,0,0,0.40439916,374.82896,413.26434)" />
      <path
         transform="matrix(0.40439916,0,0,0.40439916,374.29873,474.79225)"
         d="m 288.90363,224.54218 c 0,27.61564 -22.38691,50.00255 -50.00255,50.00255 -27.61565,0 -50.00255,-22.38691 -50.00255,-50.00255 0,-27.61565 22.3869,-50.00256 50.00255,-50.00256 27.61564,0 50.00255,22.38691 50.00255,50.00256 z"
         sodipodi:ry="50.002552"
         sodipodi:rx="50.002552"
         sodipodi:cy="224.54218"
         sodipodi:cx="238.90108"
         id="path3855"
         style="fill:none;stroke:#ff0000;stroke-width:31.15141296;stroke-linecap:butt;stroke-linejoin:miter;stroke-miterlimit:4;stroke-opacity:1;stroke-dasharray:none"
         sodipodi:type="arc" />
      <path
         style="fill:#ff0000;fill-opacity:1;stroke:#000000;stroke-width:0;stroke-miterlimit:4;stroke-opacity:1;stroke-dasharray:none"
         d="m 450.24765,549.27748 c 0,-0.1446 0.50551,-2.15025 1.12336,-4.457 1.45315,-5.42536 1.59275,-15.22766 0.2924,-20.53155 -0.48704,-1.98657 -0.88553,-3.71243 -0.88553,-3.83524 0,-0.12281 1.13337,0.8772 2.51859,2.22226 3.17662,3.0845 8.81632,5.80294 13.78606,6.64515 7.93927,1.34544 16.98204,-1.35632 22.61895,-6.75799 1.43159,-1.37184 2.4502,-2.09635 2.26357,-1.61001 -0.18662,0.48633 -0.75629,2.36784 -1.26592,4.18113 -1.28722,4.57993 -1.28749,16.93609 -4.7e-4,21.02324 0.49878,1.58397 0.90688,2.9957 0.90688,3.13719 0,0.14149 -0.87668,-0.61943 -1.94818,-1.69092 -5.03296,-5.03296 -10.80021,-7.35026 -18.46565,-7.41956 -7.72858,-0.0699 -13.76332,2.22883 -18.69059,7.11948 -1.23941,1.2302 -2.25347,2.11842 -2.25347,1.97382 z"
         id="path3857"
         inkscape:connector-curvature="0" />
    </g>
    <g
       id="g3859"
       transform="matrix(-0.38272064,-0.35922856,0.35922856,-0.38272064,188.11459,595.75917)"
       inkscape:export-filename="/Users/levi/data/project/velocorner/doc/logo.png"
       inkscape:export-xdpi="90"
       inkscape:export-ydpi="90">
      <path
         transform="matrix(0.77043053,0,0,0.77043053,42.217487,40.921122)"
         d="m 288.90363,224.54218 c 0,27.61564 -22.38691,50.00255 -50.00255,50.00255 -27.61565,0 -50.00255,-22.38691 -50.00255,-50.00255 0,-27.61565 22.3869,-50.00256 50.00255,-50.00256 27.61564,0 50.00255,22.38691 50.00255,50.00256 z"
         sodipodi:ry="50.002552"
         sodipodi:rx="50.002552"
         sodipodi:cy="224.54218"
         sodipodi:cx="238.90108"
         id="path3861"
         style="fill:none;stroke:#000000;stroke-width:31.15141296;stroke-linecap:butt;stroke-linejoin:miter;stroke-miterlimit:4;stroke-opacity:1;stroke-dasharray:none"
         sodipodi:type="arc" />
      <path
         sodipodi:type="arc"
         style="fill:none;stroke:#000000;stroke-width:31.15141296;stroke-linecap:butt;stroke-linejoin:miter;stroke-miterlimit:4;stroke-opacity:1;stroke-dasharray:none"
         id="path3863"
         sodipodi:cx="238.90108"
         sodipodi:cy="224.54218"
         sodipodi:rx="50.002552"
         sodipodi:ry="50.002552"
         d="m 288.90363,224.54218 c 0,27.61564 -22.38691,50.00255 -50.00255,50.00255 -27.61565,0 -50.00255,-22.38691 -50.00255,-50.00255 0,-27.61565 22.3869,-50.00256 50.00255,-50.00256 27.61564,0 50.00255,22.38691 50.00255,50.00256 z"
         transform="matrix(0.77043053,0,0,0.77043053,41.207334,158.13943)" />
      <path
         inkscape:connector-curvature="0"
         id="path3865"
         d="m 185.89944,300.04302 c 0,-0.27548 0.96307,-4.09649 2.14015,-8.49114 2.76843,-10.33598 3.03438,-29.01057 0.55706,-39.11514 -0.92788,-3.78467 -1.68705,-7.07264 -1.68705,-7.30661 0,-0.23397 2.1592,1.67118 4.79822,4.23367 6.05186,5.87636 16.79619,11.05533 26.26416,12.65984 15.12528,2.56323 32.35289,-2.58395 43.0919,-12.8748 2.72735,-2.61353 4.66793,-3.99381 4.31238,-3.06728 -0.35554,0.92653 -1.44083,4.51103 -2.41174,7.96557 -2.45231,8.72534 -2.45283,32.26535 -8.9e-4,40.05189 0.95024,3.01765 1.72771,5.70718 1.72771,5.97673 0,0.26955 -1.67018,-1.18009 -3.71151,-3.22142 -9.58841,-9.5884 -20.57574,-14.00315 -35.17936,-14.13518 -14.7239,-0.13313 -26.22083,4.24621 -35.60788,13.5635 -2.36123,2.34368 -4.29315,4.03585 -4.29315,3.76037 z"
         style="fill:#000000;fill-opacity:1;stroke:#000000;stroke-width:1.01015258;stroke-miterlimit:4;stroke-opacity:1;stroke-dasharray:none" />
    </g>
    <g
       id="g3867"
       transform="matrix(-0.36807122,0.3742243,-0.3742243,-0.36807122,381.49813,639.35865)"
       inkscape:export-filename="/Users/levi/data/project/velocorner/doc/logo.png"
       inkscape:export-xdpi="90"
       inkscape:export-ydpi="90">
      <path
         transform="matrix(0.77043053,0,0,0.77043053,42.217487,40.921122)"
         d="m 288.90363,224.54218 c 0,27.61564 -22.38691,50.00255 -50.00255,50.00255 -27.61565,0 -50.00255,-22.38691 -50.00255,-50.00255 0,-27.61565 22.3869,-50.00256 50.00255,-50.00256 27.61564,0 50.00255,22.38691 50.00255,50.00256 z"
         sodipodi:ry="50.002552"
         sodipodi:rx="50.002552"
         sodipodi:cy="224.54218"
         sodipodi:cx="238.90108"
         id="path3869"
         style="fill:none;stroke:#000000;stroke-width:31.15141296;stroke-linecap:butt;stroke-linejoin:miter;stroke-miterlimit:4;stroke-opacity:1;stroke-dasharray:none"
         sodipodi:type="arc" />
      <path
         sodipodi:type="arc"
         style="fill:none;stroke:#000000;stroke-width:31.15141296;stroke-linecap:butt;stroke-linejoin:miter;stroke-miterlimit:4;stroke-opacity:1;stroke-dasharray:none"
         id="path3871"
         sodipodi:cx="238.90108"
         sodipodi:cy="224.54218"
         sodipodi:rx="50.002552"
         sodipodi:ry="50.002552"
         d="m 288.90363,224.54218 c 0,27.61564 -22.38691,50.00255 -50.00255,50.00255 -27.61565,0 -50.00255,-22.38691 -50.00255,-50.00255 0,-27.61565 22.3869,-50.00256 50.00255,-50.00256 27.61564,0 50.00255,22.38691 50.00255,50.00256 z"
         transform="matrix(0.77043053,0,0,0.77043053,41.207334,158.13943)" />
      <path
         inkscape:connector-curvature="0"
         id="path3873"
         d="m 185.89944,300.04302 c 0,-0.27548 0.96307,-4.09649 2.14015,-8.49114 2.76843,-10.33598 3.03438,-29.01057 0.55706,-39.11514 -0.92788,-3.78467 -1.68705,-7.07264 -1.68705,-7.30661 0,-0.23397 2.1592,1.67118 4.79822,4.23367 6.05186,5.87636 16.79619,11.05533 26.26416,12.65984 15.12528,2.56323 32.35289,-2.58395 43.0919,-12.8748 2.72735,-2.61353 4.66793,-3.99381 4.31238,-3.06728 -0.35554,0.92653 -1.44083,4.51103 -2.41174,7.96557 -2.45231,8.72534 -2.45283,32.26535 -8.9e-4,40.05189 0.95024,3.01765 1.72771,5.70718 1.72771,5.97673 0,0.26955 -1.67018,-1.18009 -3.71151,-3.22142 -9.58841,-9.5884 -20.57574,-14.00315 -35.17936,-14.13518 -14.7239,-0.13313 -26.22083,4.24621 -35.60788,13.5635 -2.36123,2.34368 -4.29315,4.03585 -4.29315,3.76037 z"
         style="fill:#000000;fill-opacity:1;stroke:#000000;stroke-width:1.01015258;stroke-miterlimit:4;stroke-opacity:1;stroke-dasharray:none" />
    </g>
    <g
       transform="matrix(-0.38272064,-0.35922856,0.35922856,-0.38272064,398.14509,813.93181)"
       id="g3875"
       inkscape:export-filename="/Users/levi/data/project/velocorner/doc/logo.png"
       inkscape:export-xdpi="90"
       inkscape:export-ydpi="90">
      <path
         sodipodi:type="arc"
         style="fill:none;stroke:#000000;stroke-width:31.15141296;stroke-linecap:butt;stroke-linejoin:miter;stroke-miterlimit:4;stroke-opacity:1;stroke-dasharray:none"
         id="path3877"
         sodipodi:cx="238.90108"
         sodipodi:cy="224.54218"
         sodipodi:rx="50.002552"
         sodipodi:ry="50.002552"
         d="m 288.90363,224.54218 c 0,27.61564 -22.38691,50.00255 -50.00255,50.00255 -27.61565,0 -50.00255,-22.38691 -50.00255,-50.00255 0,-27.61565 22.3869,-50.00256 50.00255,-50.00256 27.61564,0 50.00255,22.38691 50.00255,50.00256 z"
         transform="matrix(0.77043053,0,0,0.77043053,42.217487,40.921122)" />
      <path
         transform="matrix(0.77043053,0,0,0.77043053,41.207334,158.13943)"
         d="m 288.90363,224.54218 c 0,27.61564 -22.38691,50.00255 -50.00255,50.00255 -27.61565,0 -50.00255,-22.38691 -50.00255,-50.00255 0,-27.61565 22.3869,-50.00256 50.00255,-50.00256 27.61564,0 50.00255,22.38691 50.00255,50.00256 z"
         sodipodi:ry="50.002552"
         sodipodi:rx="50.002552"
         sodipodi:cy="224.54218"
         sodipodi:cx="238.90108"
         id="path3879"
         style="fill:none;stroke:#000000;stroke-width:31.15141296;stroke-linecap:butt;stroke-linejoin:miter;stroke-miterlimit:4;stroke-opacity:1;stroke-dasharray:none"
         sodipodi:type="arc" />
      <path
         style="fill:#000000;fill-opacity:1;stroke:#000000;stroke-width:1.01015258;stroke-miterlimit:4;stroke-opacity:1;stroke-dasharray:none"
         d="m 185.89944,300.04302 c 0,-0.27548 0.96307,-4.09649 2.14015,-8.49114 2.76843,-10.33598 3.03438,-29.01057 0.55706,-39.11514 -0.92788,-3.78467 -1.68705,-7.07264 -1.68705,-7.30661 0,-0.23397 2.1592,1.67118 4.79822,4.23367 6.05186,5.87636 16.79619,11.05533 26.26416,12.65984 15.12528,2.56323 32.35289,-2.58395 43.0919,-12.8748 2.72735,-2.61353 4.66793,-3.99381 4.31238,-3.06728 -0.35554,0.92653 -1.44083,4.51103 -2.41174,7.96557 -2.45231,8.72534 -2.45283,32.26535 -8.9e-4,40.05189 0.95024,3.01765 1.72771,5.70718 1.72771,5.97673 0,0.26955 -1.67018,-1.18009 -3.71151,-3.22142 -9.58841,-9.5884 -20.57574,-14.00315 -35.17936,-14.13518 -14.7239,-0.13313 -26.22083,4.24621 -35.60788,13.5635 -2.36123,2.34368 -4.29315,4.03585 -4.29315,3.76037 z"
         id="path3881"
         inkscape:connector-curvature="0" />
    </g>
    <g
       transform="matrix(0.0029941,0.99999552,-0.99999552,0.0029941,835.83867,194.28184)"
       id="g3883"
       inkscape:export-filename="/Users/levi/data/project/velocorner/doc/logo.png"
       inkscape:export-xdpi="90"
       inkscape:export-ydpi="90">
      <path
         transform="matrix(0.40439916,0,0,0.40439916,374.82896,413.26434)"
         d="m 288.90363,224.54218 c 0,27.61564 -22.38691,50.00255 -50.00255,50.00255 -27.61565,0 -50.00255,-22.38691 -50.00255,-50.00255 0,-27.61565 22.3869,-50.00256 50.00255,-50.00256 27.61564,0 50.00255,22.38691 50.00255,50.00256 z"
         sodipodi:ry="50.002552"
         sodipodi:rx="50.002552"
         sodipodi:cy="224.54218"
         sodipodi:cx="238.90108"
         id="path3885"
         style="fill:none;stroke:#ff0000;stroke-width:31.15141296;stroke-linecap:butt;stroke-linejoin:miter;stroke-miterlimit:4;stroke-opacity:1;stroke-dasharray:none"
         sodipodi:type="arc" />
      <path
         sodipodi:type="arc"
         style="fill:none;stroke:#ff0000;stroke-width:31.15141296;stroke-linecap:butt;stroke-linejoin:miter;stroke-miterlimit:4;stroke-opacity:1;stroke-dasharray:none"
         id="path3887"
         sodipodi:cx="238.90108"
         sodipodi:cy="224.54218"
         sodipodi:rx="50.002552"
         sodipodi:ry="50.002552"
         d="m 288.90363,224.54218 c 0,27.61564 -22.38691,50.00255 -50.00255,50.00255 -27.61565,0 -50.00255,-22.38691 -50.00255,-50.00255 0,-27.61565 22.3869,-50.00256 50.00255,-50.00256 27.61564,0 50.00255,22.38691 50.00255,50.00256 z"
         transform="matrix(0.40439916,0,0,0.40439916,374.29873,474.79225)" />
      <path
         inkscape:connector-curvature="0"
         id="path3889"
         d="m 450.24765,549.27748 c 0,-0.1446 0.50551,-2.15025 1.12336,-4.457 1.45315,-5.42536 1.59275,-15.22766 0.2924,-20.53155 -0.48704,-1.98657 -0.88553,-3.71243 -0.88553,-3.83524 0,-0.12281 1.13337,0.8772 2.51859,2.22226 3.17662,3.0845 8.81632,5.80294 13.78606,6.64515 7.93927,1.34544 16.98204,-1.35632 22.61895,-6.75799 1.43159,-1.37184 2.4502,-2.09635 2.26357,-1.61001 -0.18662,0.48633 -0.75629,2.36784 -1.26592,4.18113 -1.28722,4.57993 -1.28749,16.93609 -4.7e-4,21.02324 0.49878,1.58397 0.90688,2.9957 0.90688,3.13719 0,0.14149 -0.87668,-0.61943 -1.94818,-1.69092 -5.03296,-5.03296 -10.80021,-7.35026 -18.46565,-7.41956 -7.72858,-0.0699 -13.76332,2.22883 -18.69059,7.11948 -1.23941,1.2302 -2.25347,2.11842 -2.25347,1.97382 z"
         style="fill:#ff0000;fill-opacity:1;stroke:#000000;stroke-width:0;stroke-miterlimit:4;stroke-opacity:1;stroke-dasharray:none" />
    </g>
    <g
       transform="matrix(0.99879788,-0.04901827,0.04901827,0.99879788,-171.11725,-370.42342)"
       id="g3915">
      <path
         transform="matrix(0.40439916,0,0,0.40439916,374.82896,413.26434)"
         d="m 288.90363,224.54218 c 0,27.61564 -22.38691,50.00255 -50.00255,50.00255 -27.61565,0 -50.00255,-22.38691 -50.00255,-50.00255 0,-27.61565 22.3869,-50.00256 50.00255,-50.00256 27.61564,0 50.00255,22.38691 50.00255,50.00256 z"
         sodipodi:ry="50.002552"
         sodipodi:rx="50.002552"
         sodipodi:cy="224.54218"
         sodipodi:cx="238.90108"
         id="path3917"
         style="fill:none;stroke:#ff0000;stroke-width:31.15141296;stroke-linecap:butt;stroke-linejoin:miter;stroke-miterlimit:4;stroke-opacity:1;stroke-dasharray:none"
         sodipodi:type="arc" />
      <path
         sodipodi:type="arc"
         style="fill:none;stroke:#ff0000;stroke-width:31.15141296;stroke-linecap:butt;stroke-linejoin:miter;stroke-miterlimit:4;stroke-opacity:1;stroke-dasharray:none"
         id="path3919"
         sodipodi:cx="238.90108"
         sodipodi:cy="224.54218"
         sodipodi:rx="50.002552"
         sodipodi:ry="50.002552"
         d="m 288.90363,224.54218 c 0,27.61564 -22.38691,50.00255 -50.00255,50.00255 -27.61565,0 -50.00255,-22.38691 -50.00255,-50.00255 0,-27.61565 22.3869,-50.00256 50.00255,-50.00256 27.61564,0 50.00255,22.38691 50.00255,50.00256 z"
         transform="matrix(0.40439916,0,0,0.40439916,374.29873,474.79225)" />
      <path
         inkscape:connector-curvature="0"
         id="path3921"
         d="m 450.24765,549.27748 c 0,-0.1446 0.50551,-2.15025 1.12336,-4.457 1.45315,-5.42536 1.59275,-15.22766 0.2924,-20.53155 -0.48704,-1.98657 -0.88553,-3.71243 -0.88553,-3.83524 0,-0.12281 1.13337,0.8772 2.51859,2.22226 3.17662,3.0845 8.81632,5.80294 13.78606,6.64515 7.93927,1.34544 16.98204,-1.35632 22.61895,-6.75799 1.43159,-1.37184 2.4502,-2.09635 2.26357,-1.61001 -0.18662,0.48633 -0.75629,2.36784 -1.26592,4.18113 -1.28722,4.57993 -1.28749,16.93609 -4.7e-4,21.02324 0.49878,1.58397 0.90688,2.9957 0.90688,3.13719 0,0.14149 -0.87668,-0.61943 -1.94818,-1.69092 -5.03296,-5.03296 -10.80021,-7.35026 -18.46565,-7.41956 -7.72858,-0.0699 -13.76332,2.22883 -18.69059,7.11948 -1.23941,1.2302 -2.25347,2.11842 -2.25347,1.97382 z"
         style="fill:#ff0000;fill-opacity:1;stroke:#000000;stroke-width:0;stroke-miterlimit:4;stroke-opacity:1;stroke-dasharray:none" />
    </g>
    <g
       id="g3947"
       transform="matrix(0.0029941,0.99999552,-0.99999552,0.0029941,934.81331,-257.38828)">
      <path
         sodipodi:type="arc"
         style="fill:none;stroke:#ff0000;stroke-width:31.15141296;stroke-linecap:butt;stroke-linejoin:miter;stroke-miterlimit:4;stroke-opacity:1;stroke-dasharray:none"
         id="path3949"
         sodipodi:cx="238.90108"
         sodipodi:cy="224.54218"
         sodipodi:rx="50.002552"
         sodipodi:ry="50.002552"
         d="m 288.90363,224.54218 c 0,27.61564 -22.38691,50.00255 -50.00255,50.00255 -27.61565,0 -50.00255,-22.38691 -50.00255,-50.00255 0,-27.61565 22.3869,-50.00256 50.00255,-50.00256 27.61564,0 50.00255,22.38691 50.00255,50.00256 z"
         transform="matrix(0.40439916,0,0,0.40439916,374.82896,413.26434)" />
      <path
         transform="matrix(0.40439916,0,0,0.40439916,374.29873,474.79225)"
         d="m 288.90363,224.54218 c 0,27.61564 -22.38691,50.00255 -50.00255,50.00255 -27.61565,0 -50.00255,-22.38691 -50.00255,-50.00255 0,-27.61565 22.3869,-50.00256 50.00255,-50.00256 27.61564,0 50.00255,22.38691 50.00255,50.00256 z"
         sodipodi:ry="50.002552"
         sodipodi:rx="50.002552"
         sodipodi:cy="224.54218"
         sodipodi:cx="238.90108"
         id="path3951"
         style="fill:none;stroke:#ff0000;stroke-width:31.15141296;stroke-linecap:butt;stroke-linejoin:miter;stroke-miterlimit:4;stroke-opacity:1;stroke-dasharray:none"
         sodipodi:type="arc" />
      <path
         style="fill:#ff0000;fill-opacity:1;stroke:#000000;stroke-width:0;stroke-miterlimit:4;stroke-opacity:1;stroke-dasharray:none"
         d="m 450.24765,549.27748 c 0,-0.1446 0.50551,-2.15025 1.12336,-4.457 1.45315,-5.42536 1.59275,-15.22766 0.2924,-20.53155 -0.48704,-1.98657 -0.88553,-3.71243 -0.88553,-3.83524 0,-0.12281 1.13337,0.8772 2.51859,2.22226 3.17662,3.0845 8.81632,5.80294 13.78606,6.64515 7.93927,1.34544 16.98204,-1.35632 22.61895,-6.75799 1.43159,-1.37184 2.4502,-2.09635 2.26357,-1.61001 -0.18662,0.48633 -0.75629,2.36784 -1.26592,4.18113 -1.28722,4.57993 -1.28749,16.93609 -4.7e-4,21.02324 0.49878,1.58397 0.90688,2.9957 0.90688,3.13719 0,0.14149 -0.87668,-0.61943 -1.94818,-1.69092 -5.03296,-5.03296 -10.80021,-7.35026 -18.46565,-7.41956 -7.72858,-0.0699 -13.76332,2.22883 -18.69059,7.11948 -1.23941,1.2302 -2.25347,2.11842 -2.25347,1.97382 z"
         id="path3953"
         inkscape:connector-curvature="0" />
    </g>
    <g
       transform="matrix(-0.36807122,0.3742243,-0.3742243,-0.36807122,532.24941,209.72914)"
       id="g3931">
      <path
         sodipodi:type="arc"
         style="fill:none;stroke:#000000;stroke-width:31.15141296;stroke-linecap:butt;stroke-linejoin:miter;stroke-miterlimit:4;stroke-opacity:1;stroke-dasharray:none"
         id="path3933"
         sodipodi:cx="238.90108"
         sodipodi:cy="224.54218"
         sodipodi:rx="50.002552"
         sodipodi:ry="50.002552"
         d="m 288.90363,224.54218 c 0,27.61564 -22.38691,50.00255 -50.00255,50.00255 -27.61565,0 -50.00255,-22.38691 -50.00255,-50.00255 0,-27.61565 22.3869,-50.00256 50.00255,-50.00256 27.61564,0 50.00255,22.38691 50.00255,50.00256 z"
         transform="matrix(0.77043053,0,0,0.77043053,42.217487,40.921122)" />
      <path
         transform="matrix(0.77043053,0,0,0.77043053,41.207334,158.13943)"
         d="m 288.90363,224.54218 c 0,27.61564 -22.38691,50.00255 -50.00255,50.00255 -27.61565,0 -50.00255,-22.38691 -50.00255,-50.00255 0,-27.61565 22.3869,-50.00256 50.00255,-50.00256 27.61564,0 50.00255,22.38691 50.00255,50.00256 z"
         sodipodi:ry="50.002552"
         sodipodi:rx="50.002552"
         sodipodi:cy="224.54218"
         sodipodi:cx="238.90108"
         id="path3935"
         style="fill:none;stroke:#000000;stroke-width:31.15141296;stroke-linecap:butt;stroke-linejoin:miter;stroke-miterlimit:4;stroke-opacity:1;stroke-dasharray:none"
         sodipodi:type="arc" />
      <path
         style="fill:#000000;fill-opacity:1;stroke:#000000;stroke-width:1.01015258;stroke-miterlimit:4;stroke-opacity:1;stroke-dasharray:none"
         d="m 185.89944,300.04302 c 0,-0.27548 0.96307,-4.09649 2.14015,-8.49114 2.76843,-10.33598 3.03438,-29.01057 0.55706,-39.11514 -0.92788,-3.78467 -1.68705,-7.07264 -1.68705,-7.30661 0,-0.23397 2.1592,1.67118 4.79822,4.23367 6.05186,5.87636 16.79619,11.05533 26.26416,12.65984 15.12528,2.56323 32.35289,-2.58395 43.0919,-12.8748 2.72735,-2.61353 4.66793,-3.99381 4.31238,-3.06728 -0.35554,0.92653 -1.44083,4.51103 -2.41174,7.96557 -2.45231,8.72534 -2.45283,32.26535 -8.9e-4,40.05189 0.95024,3.01765 1.72771,5.70718 1.72771,5.97673 0,0.26955 -1.67018,-1.18009 -3.71151,-3.22142 -9.58841,-9.5884 -20.57574,-14.00315 -35.17936,-14.13518 -14.7239,-0.13313 -26.22083,4.24621 -35.60788,13.5635 -2.36123,2.34368 -4.29315,4.03585 -4.29315,3.76037 z"
         id="path3937"
         inkscape:connector-curvature="0" />
    </g>
    <g
       transform="translate(3.964492,-397.1727)"
       id="g3899">
      <path
         sodipodi:type="arc"
         style="fill:none;stroke:#ff0000;stroke-width:31.15141296;stroke-linecap:butt;stroke-linejoin:miter;stroke-miterlimit:4;stroke-opacity:1;stroke-dasharray:none"
         id="path3901"
         sodipodi:cx="238.90108"
         sodipodi:cy="224.54218"
         sodipodi:rx="50.002552"
         sodipodi:ry="50.002552"
         d="m 288.90363,224.54218 c 0,27.61564 -22.38691,50.00255 -50.00255,50.00255 -27.61565,0 -50.00255,-22.38691 -50.00255,-50.00255 0,-27.61565 22.3869,-50.00256 50.00255,-50.00256 27.61564,0 50.00255,22.38691 50.00255,50.00256 z"
         transform="matrix(0.40439916,0,0,0.40439916,374.82896,413.26434)" />
      <path
         transform="matrix(0.40439916,0,0,0.40439916,374.29873,474.79225)"
         d="m 288.90363,224.54218 c 0,27.61564 -22.38691,50.00255 -50.00255,50.00255 -27.61565,0 -50.00255,-22.38691 -50.00255,-50.00255 0,-27.61565 22.3869,-50.00256 50.00255,-50.00256 27.61564,0 50.00255,22.38691 50.00255,50.00256 z"
         sodipodi:ry="50.002552"
         sodipodi:rx="50.002552"
         sodipodi:cy="224.54218"
         sodipodi:cx="238.90108"
         id="path3903"
         style="fill:none;stroke:#ff0000;stroke-width:31.15141296;stroke-linecap:butt;stroke-linejoin:miter;stroke-miterlimit:4;stroke-opacity:1;stroke-dasharray:none"
         sodipodi:type="arc" />
      <path
         style="fill:#ff0000;fill-opacity:1;stroke:#000000;stroke-width:0;stroke-miterlimit:4;stroke-opacity:1;stroke-dasharray:none"
         d="m 450.24765,549.27748 c 0,-0.1446 0.50551,-2.15025 1.12336,-4.457 1.45315,-5.42536 1.59275,-15.22766 0.2924,-20.53155 -0.48704,-1.98657 -0.88553,-3.71243 -0.88553,-3.83524 0,-0.12281 1.13337,0.8772 2.51859,2.22226 3.17662,3.0845 8.81632,5.80294 13.78606,6.64515 7.93927,1.34544 16.98204,-1.35632 22.61895,-6.75799 1.43159,-1.37184 2.4502,-2.09635 2.26357,-1.61001 -0.18662,0.48633 -0.75629,2.36784 -1.26592,4.18113 -1.28722,4.57993 -1.28749,16.93609 -4.7e-4,21.02324 0.49878,1.58397 0.90688,2.9957 0.90688,3.13719 0,0.14149 -0.87668,-0.61943 -1.94818,-1.69092 -5.03296,-5.03296 -10.80021,-7.35026 -18.46565,-7.41956 -7.72858,-0.0699 -13.76332,2.22883 -18.69059,7.11948 -1.23941,1.2302 -2.25347,2.11842 -2.25347,1.97382 z"
         id="path3905"
         inkscape:connector-curvature="0" />
    </g>
    <g
       id="g3939"
       transform="matrix(-0.38272064,-0.35922856,0.35922856,-0.38272064,443.26187,377.19062)">
      <path
         transform="matrix(0.77043053,0,0,0.77043053,42.217487,40.921122)"
         d="m 288.90363,224.54218 c 0,27.61564 -22.38691,50.00255 -50.00255,50.00255 -27.61565,0 -50.00255,-22.38691 -50.00255,-50.00255 0,-27.61565 22.3869,-50.00256 50.00255,-50.00256 27.61564,0 50.00255,22.38691 50.00255,50.00256 z"
         sodipodi:ry="50.002552"
         sodipodi:rx="50.002552"
         sodipodi:cy="224.54218"
         sodipodi:cx="238.90108"
         id="path3941"
         style="fill:none;stroke:#000000;stroke-width:31.15141296;stroke-linecap:butt;stroke-linejoin:miter;stroke-miterlimit:4;stroke-opacity:1;stroke-dasharray:none"
         sodipodi:type="arc" />
      <path
         sodipodi:type="arc"
         style="fill:none;stroke:#000000;stroke-width:31.15141296;stroke-linecap:butt;stroke-linejoin:miter;stroke-miterlimit:4;stroke-opacity:1;stroke-dasharray:none"
         id="path3943"
         sodipodi:cx="238.90108"
         sodipodi:cy="224.54218"
         sodipodi:rx="50.002552"
         sodipodi:ry="50.002552"
         d="m 288.90363,224.54218 c 0,27.61564 -22.38691,50.00255 -50.00255,50.00255 -27.61565,0 -50.00255,-22.38691 -50.00255,-50.00255 0,-27.61565 22.3869,-50.00256 50.00255,-50.00256 27.61564,0 50.00255,22.38691 50.00255,50.00256 z"
         transform="matrix(0.77043053,0,0,0.77043053,41.207334,158.13943)" />
      <path
         inkscape:connector-curvature="0"
         id="path3945"
         d="m 185.89944,300.04302 c 0,-0.27548 0.96307,-4.09649 2.14015,-8.49114 2.76843,-10.33598 3.03438,-29.01057 0.55706,-39.11514 -0.92788,-3.78467 -1.68705,-7.07264 -1.68705,-7.30661 0,-0.23397 2.1592,1.67118 4.79822,4.23367 6.05186,5.87636 16.79619,11.05533 26.26416,12.65984 15.12528,2.56323 32.35289,-2.58395 43.0919,-12.8748 2.72735,-2.61353 4.66793,-3.99381 4.31238,-3.06728 -0.35554,0.92653 -1.44083,4.51103 -2.41174,7.96557 -2.45231,8.72534 -2.45283,32.26535 -8.9e-4,40.05189 0.95024,3.01765 1.72771,5.70718 1.72771,5.97673 0,0.26955 -1.67018,-1.18009 -3.71151,-3.22142 -9.58841,-9.5884 -20.57574,-14.00315 -35.17936,-14.13518 -14.7239,-0.13313 -26.22083,4.24621 -35.60788,13.5635 -2.36123,2.34368 -4.29315,4.03585 -4.29315,3.76037 z"
         style="fill:#000000;fill-opacity:1;stroke:#000000;stroke-width:1.01015258;stroke-miterlimit:4;stroke-opacity:1;stroke-dasharray:none" />
    </g>
    <g
       transform="matrix(0.03164646,0.99949913,-0.99949913,0.03164646,918.15922,-424.94064)"
       id="g3907">
      <path
         transform="matrix(0.40439916,0,0,0.40439916,374.82896,413.26434)"
         d="m 288.90363,224.54218 c 0,27.61564 -22.38691,50.00255 -50.00255,50.00255 -27.61565,0 -50.00255,-22.38691 -50.00255,-50.00255 0,-27.61565 22.3869,-50.00256 50.00255,-50.00256 27.61564,0 50.00255,22.38691 50.00255,50.00256 z"
         sodipodi:ry="50.002552"
         sodipodi:rx="50.002552"
         sodipodi:cy="224.54218"
         sodipodi:cx="238.90108"
         id="path3909"
         style="fill:none;stroke:#ff0000;stroke-width:31.15141296;stroke-linecap:butt;stroke-linejoin:miter;stroke-miterlimit:4;stroke-opacity:1;stroke-dasharray:none"
         sodipodi:type="arc" />
      <path
         sodipodi:type="arc"
         style="fill:none;stroke:#ff0000;stroke-width:31.15141296;stroke-linecap:butt;stroke-linejoin:miter;stroke-miterlimit:4;stroke-opacity:1;stroke-dasharray:none"
         id="path3911"
         sodipodi:cx="238.90108"
         sodipodi:cy="224.54218"
         sodipodi:rx="50.002552"
         sodipodi:ry="50.002552"
         d="m 288.90363,224.54218 c 0,27.61564 -22.38691,50.00255 -50.00255,50.00255 -27.61565,0 -50.00255,-22.38691 -50.00255,-50.00255 0,-27.61565 22.3869,-50.00256 50.00255,-50.00256 27.61564,0 50.00255,22.38691 50.00255,50.00256 z"
         transform="matrix(0.40439916,0,0,0.40439916,374.29873,474.79225)" />
      <path
         inkscape:connector-curvature="0"
         id="path3913"
         d="m 450.24765,549.27748 c 0,-0.1446 0.50551,-2.15025 1.12336,-4.457 1.45315,-5.42536 1.59275,-15.22766 0.2924,-20.53155 -0.48704,-1.98657 -0.88553,-3.71243 -0.88553,-3.83524 0,-0.12281 1.13337,0.8772 2.51859,2.22226 3.17662,3.0845 8.81632,5.80294 13.78606,6.64515 7.93927,1.34544 16.98204,-1.35632 22.61895,-6.75799 1.43159,-1.37184 2.4502,-2.09635 2.26357,-1.61001 -0.18662,0.48633 -0.75629,2.36784 -1.26592,4.18113 -1.28722,4.57993 -1.28749,16.93609 -4.7e-4,21.02324 0.49878,1.58397 0.90688,2.9957 0.90688,3.13719 0,0.14149 -0.87668,-0.61943 -1.94818,-1.69092 -5.03296,-5.03296 -10.80021,-7.35026 -18.46565,-7.41956 -7.72858,-0.0699 -13.76332,2.22883 -18.69059,7.11948 -1.23941,1.2302 -2.25347,2.11842 -2.25347,1.97382 z"
         style="fill:#ff0000;fill-opacity:1;stroke:#000000;stroke-width:0;stroke-miterlimit:4;stroke-opacity:1;stroke-dasharray:none" />
    </g>
    <g
       id="g3891"
       transform="matrix(-0.36807122,0.3742243,-0.3742243,-0.36807122,637.77739,101.31284)">
      <path
         transform="matrix(0.77043053,0,0,0.77043053,42.217487,40.921122)"
         d="m 288.90363,224.54218 c 0,27.61564 -22.38691,50.00255 -50.00255,50.00255 -27.61565,0 -50.00255,-22.38691 -50.00255,-50.00255 0,-27.61565 22.3869,-50.00256 50.00255,-50.00256 27.61564,0 50.00255,22.38691 50.00255,50.00256 z"
         sodipodi:ry="50.002552"
         sodipodi:rx="50.002552"
         sodipodi:cy="224.54218"
         sodipodi:cx="238.90108"
         id="path3893"
         style="fill:none;stroke:#000000;stroke-width:31.15141296;stroke-linecap:butt;stroke-linejoin:miter;stroke-miterlimit:4;stroke-opacity:1;stroke-dasharray:none"
         sodipodi:type="arc" />
      <path
         sodipodi:type="arc"
         style="fill:none;stroke:#000000;stroke-width:31.15141296;stroke-linecap:butt;stroke-linejoin:miter;stroke-miterlimit:4;stroke-opacity:1;stroke-dasharray:none"
         id="path3895"
         sodipodi:cx="238.90108"
         sodipodi:cy="224.54218"
         sodipodi:rx="50.002552"
         sodipodi:ry="50.002552"
         d="m 288.90363,224.54218 c 0,27.61564 -22.38691,50.00255 -50.00255,50.00255 -27.61565,0 -50.00255,-22.38691 -50.00255,-50.00255 0,-27.61565 22.3869,-50.00256 50.00255,-50.00256 27.61564,0 50.00255,22.38691 50.00255,50.00256 z"
         transform="matrix(0.77043053,0,0,0.77043053,41.207334,158.13943)" />
      <path
         inkscape:connector-curvature="0"
         id="path3897"
         d="m 185.89944,300.04302 c 0,-0.27548 0.96307,-4.09649 2.14015,-8.49114 2.76843,-10.33598 3.03438,-29.01057 0.55706,-39.11514 -0.92788,-3.78467 -1.68705,-7.07264 -1.68705,-7.30661 0,-0.23397 2.1592,1.67118 4.79822,4.23367 6.05186,5.87636 16.79619,11.05533 26.26416,12.65984 15.12528,2.56323 32.35289,-2.58395 43.0919,-12.8748 2.72735,-2.61353 4.66793,-3.99381 4.31238,-3.06728 -0.35554,0.92653 -1.44083,4.51103 -2.41174,7.96557 -2.45231,8.72534 -2.45283,32.26535 -8.9e-4,40.05189 0.95024,3.01765 1.72771,5.70718 1.72771,5.97673 0,0.26955 -1.67018,-1.18009 -3.71151,-3.22142 -9.58841,-9.5884 -20.57574,-14.00315 -35.17936,-14.13518 -14.7239,-0.13313 -26.22083,4.24621 -35.60788,13.5635 -2.36123,2.34368 -4.29315,4.03585 -4.29315,3.76037 z"
         style="fill:#000000;fill-opacity:1;stroke:#000000;stroke-width:1.01015258;stroke-miterlimit:4;stroke-opacity:1;stroke-dasharray:none" />
    </g>
    <g
       transform="matrix(-0.38272064,-0.35922856,0.35922856,-0.38272064,333.85572,271.74386)"
       id="g3923">
      <path
         sodipodi:type="arc"
         style="fill:none;stroke:#000000;stroke-width:31.15141296;stroke-linecap:butt;stroke-linejoin:miter;stroke-miterlimit:4;stroke-opacity:1;stroke-dasharray:none"
         id="path3925"
         sodipodi:cx="238.90108"
         sodipodi:cy="224.54218"
         sodipodi:rx="50.002552"
         sodipodi:ry="50.002552"
         d="m 288.90363,224.54218 c 0,27.61564 -22.38691,50.00255 -50.00255,50.00255 -27.61565,0 -50.00255,-22.38691 -50.00255,-50.00255 0,-27.61565 22.3869,-50.00256 50.00255,-50.00256 27.61564,0 50.00255,22.38691 50.00255,50.00256 z"
         transform="matrix(0.77043053,0,0,0.77043053,42.217487,40.921122)" />
      <path
         transform="matrix(0.77043053,0,0,0.77043053,41.207334,158.13943)"
         d="m 288.90363,224.54218 c 0,27.61564 -22.38691,50.00255 -50.00255,50.00255 -27.61565,0 -50.00255,-22.38691 -50.00255,-50.00255 0,-27.61565 22.3869,-50.00256 50.00255,-50.00256 27.61564,0 50.00255,22.38691 50.00255,50.00256 z"
         sodipodi:ry="50.002552"
         sodipodi:rx="50.002552"
         sodipodi:cy="224.54218"
         sodipodi:cx="238.90108"
         id="path3927"
         style="fill:none;stroke:#000000;stroke-width:31.15141296;stroke-linecap:butt;stroke-linejoin:miter;stroke-miterlimit:4;stroke-opacity:1;stroke-dasharray:none"
         sodipodi:type="arc" />
      <path
         style="fill:#000000;fill-opacity:1;stroke:#000000;stroke-width:1.01015258;stroke-miterlimit:4;stroke-opacity:1;stroke-dasharray:none"
         d="m 185.89944,300.04302 c 0,-0.27548 0.96307,-4.09649 2.14015,-8.49114 2.76843,-10.33598 3.03438,-29.01057 0.55706,-39.11514 -0.92788,-3.78467 -1.68705,-7.07264 -1.68705,-7.30661 0,-0.23397 2.1592,1.67118 4.79822,4.23367 6.05186,5.87636 16.79619,11.05533 26.26416,12.65984 15.12528,2.56323 32.35289,-2.58395 43.0919,-12.8748 2.72735,-2.61353 4.66793,-3.99381 4.31238,-3.06728 -0.35554,0.92653 -1.44083,4.51103 -2.41174,7.96557 -2.45231,8.72534 -2.45283,32.26535 -8.9e-4,40.05189 0.95024,3.01765 1.72771,5.70718 1.72771,5.97673 0,0.26955 -1.67018,-1.18009 -3.71151,-3.22142 -9.58841,-9.5884 -20.57574,-14.00315 -35.17936,-14.13518 -14.7239,-0.13313 -26.22083,4.24621 -35.60788,13.5635 -2.36123,2.34368 -4.29315,4.03585 -4.29315,3.76037 z"
         id="path3929"
         inkscape:connector-curvature="0" />
    </g>
  </g>
</svg>
